<svg width="64" height="64" fill="none" xmlns="http://www.w3.org/2000/svg"><g clip-path="url(#clip0)" stroke-width="2" stroke-linejoin="round"><path d="M32 1L5.67 7.7v17.94C5.67 53.58 32 63.06 32 63.06s26.33-10.25 26.33-37.42V7.7L32 1z" stroke="#007AFF"/><path d="M31.94 58.08c-5.31-2.44-21.69-11.64-21.69-32.44V11.25L32 5.67l21.75 5.58v14.39c0 20.25-16.49 29.86-21.81 32.44zm11.13-32.92a11.88 11.88 0 1 1-3.22-4.62" stroke="#00BFA5" stroke-linecap="round"/><path d="M40.06 16.97l-.04 3.89-4.13.05M32 22.01v7.95l2.98 2.98" stroke="#00BFA5" stroke-linecap="round"/></g><defs><clipPath id="clip0"><path fill="#fff" d="M0 0h64v64H0z"/></clipPath></defs></svg>