<svg width="64" height="64" fill="none" xmlns="http://www.w3.org/2000/svg"><path d="M14.67 28.44V18.33A17.38 17.38 0 0 1 32 1v0a17.38 17.38 0 0 1 17.33 17.33v10.1" stroke="#00BFA5" stroke-width="2" stroke-linecap="round" stroke-linejoin="round"/><path d="M44.33 28.43v-10.1a12.33 12.33 0 1 0-24.66 0v10.11" stroke="#00BFA5" stroke-width="2" stroke-linecap="round" stroke-linejoin="round"/><path d="M52.72 28.43H11.27a2.08 2.08 0 0 0-2.08 2.08v30.41A2.08 2.08 0 0 0 11.27 63h41.45a2.08 2.08 0 0 0 2.08-2.08V30.51a2.08 2.08 0 0 0-2.08-2.08zm-4.05 13.11h6.14m-6.14 4.17h6.14m-6.14 4.18h6.14M9.07 41.54h6.14m-6.14 4.17h6.14m-6.14 4.18h6.14" stroke="#007AFF" stroke-width="2" stroke-linejoin="round"/><path d="M47.55 36.93h-31.1a1.28 1.28 0 0 0-1.28 1.28v15c0 .707.573 1.28 1.28 1.28h31.1a1.28 1.28 0 0 0 1.28-1.28v-15a1.28 1.28 0 0 0-1.28-1.28z" stroke="#00BFA5" stroke-width="2" stroke-miterlimit="10"/><path d="M23.19 49.74a4.377 4.377 0 0 1-1.47-.74l.6-1.34a4.67 4.67 0 0 0 2.74.86 2.38 2.38 0 0 0 1.22-.26.79.79 0 0 0 .43-.72.7.7 0 0 0-.39-.63 5.432 5.432 0 0 0-1.39-.45 7.388 7.388 0 0 1-1.78-.55 2.25 2.25 0 0 1-1-.8 2 2 0 0 1-.28-1.11 2.25 2.25 0 0 1 .43-1.36 2.84 2.84 0 0 1 1.19-1 4.48 4.48 0 0 1 1.78-.34 5.54 5.54 0 0 1 1.73.27 3.55 3.55 0 0 1 1.33.7l-.6 1.34a4.08 4.08 0 0 0-2.45-.86 2 2 0 0 0-1.15.29.87.87 0 0 0-.42.77.67.67 0 0 0 .16.47c.149.154.335.268.54.33.348.127.706.228 1.07.3a5.93 5.93 0 0 1 2.35.93 1.85 1.85 0 0 1 .71 1.56 2.22 2.22 0 0 1-.92 1.89A4.25 4.25 0 0 1 25 50a6.665 6.665 0 0 1-1.81-.26zm7.81 0a4.382 4.382 0 0 1-1.47-.74l.6-1.34a4.67 4.67 0 0 0 2.75.86 2.36 2.36 0 0 0 1.21-.26.79.79 0 0 0 .43-.72.699.699 0 0 0-.39-.63 5.43 5.43 0 0 0-1.39-.45 7.542 7.542 0 0 1-1.74-.52 2.25 2.25 0 0 1-1-.8 2.121 2.121 0 0 1-.32-1.14 2.32 2.32 0 0 1 .43-1.36 2.84 2.84 0 0 1 1.19-1 4.52 4.52 0 0 1 1.78-.34 5.54 5.54 0 0 1 1.73.27 3.55 3.55 0 0 1 1.33.7l-.6 1.34a4.08 4.08 0 0 0-2.45-.86 2 2 0 0 0-1.15.29.87.87 0 0 0-.42.77.67.67 0 0 0 .16.47c.149.154.335.268.54.33.351.128.713.229 1.08.3a5.88 5.88 0 0 1 2.34.93 1.86 1.86 0 0 1 .72 1.56 2.23 2.23 0 0 1-.93 1.89 4.21 4.21 0 0 1-2.58.69 6.72 6.72 0 0 1-1.85-.24zm6.7.15v-8.46h1.87v6.94h3.78v1.52H37.7z" fill="#0079FF"/></svg>